<?xml version="1.0" encoding="UTF-8"?>
<svg id="Flat" xmlns="http://www.w3.org/2000/svg" viewBox="0 0 2055.8 187.55">
  <defs>
    <style>
      .cls-1 {
        fill: #fcac61;
      }

      .cls-2 {
        fill: #fff;
      }
    </style>
  </defs>
  <g>
    <path class="cls-2" d="M192.75,65.06c3.58-.73,10.03-1.32,16.3-1.32,8.22,0,13.36,1.07,17.53,3.91,3.77,2.34,6.29,6.27,6.29,11.52,0,5.64-3.53,10.79-10.21,13.23v.24c6.46,1.64,12.42,6.73,12.42,15.2,0,5.44-2.35,9.67-5.85,12.65-4.37,3.78-11.54,5.67-22.74,5.67-6.21,0-10.84-.42-13.74-.8v-60.29ZM203.77,89.31h5.79c7.79,0,12.12-3.69,12.12-8.89,0-5.8-4.4-8.46-11.48-8.46-3.33,0-5.22.23-6.43.49v16.85ZM203.77,117.47c1.47.27,3.37.32,5.95.32,7.2,0,13.68-2.7,13.68-10.31,0-7.16-6.3-10.1-14.03-10.12h-5.6v20.11Z"/>
    <path class="cls-2" d="M279.32,98.3h-23.13v18.12h25.87v9.14h-36.98v-61.34h35.63v9.14h-24.51v15.88h23.13v9.06Z"/>
    <path class="cls-2" d="M304.53,73.55h-17.55v-9.33h46.37v9.33h-17.71v52h-11.11v-52Z"/>
    <path class="cls-2" d="M353.46,125.55l-15-61.34h11.84l5.89,27.95c1.52,7.47,2.97,15.27,4,21.34h.2c.99-6.4,2.67-13.73,4.46-21.47l6.65-27.82h11.69l6.11,28.31c1.5,7.25,2.82,14.11,3.73,20.75h.19c1.08-6.78,2.57-13.77,4.18-21.25l6.43-27.81h11.31l-16.56,61.34h-11.85l-6.39-28.98c-1.56-6.96-2.67-12.83-3.47-19.43h-.18c-1.03,6.56-2.22,12.44-4.07,19.45l-7.18,28.96h-12.01Z"/>
    <path class="cls-2" d="M456.77,98.3h-23.13v18.12h25.87v9.14h-36.98v-61.34h35.63v9.14h-24.51v15.88h23.13v9.06Z"/>
    <path class="cls-2" d="M503.54,98.3h-23.13v18.12h25.87v9.14h-36.98v-61.34h35.63v9.14h-24.51v15.88h23.13v9.06Z"/>
    <path class="cls-2" d="M516.07,125.55v-61.34h12.68l15.96,26.46c4.05,6.79,7.62,13.89,10.45,20.54l.22-.06c-.79-8.15-1-16.03-1-25.41v-21.53h10.27v61.34h-11.5l-16.11-27.11c-3.92-6.74-7.99-14.19-11.01-21.14l-.29.06c.45,7.96.59,16.04.59,26.12v22.07h-10.27Z"/>
    <path class="cls-2" d="M604.47,73.55h-17.55v-9.33h46.37v9.33h-17.71v52h-11.11v-52Z"/>
    <path class="cls-2" d="M651.48,64.22v24.57h26.03v-24.57h11.11v61.34h-11.11v-27.12h-26.03v27.12h-11.11v-61.34h11.11Z"/>
    <path class="cls-2" d="M735.77,98.3h-23.13v18.12h25.87v9.14h-36.98v-61.34h35.63v9.14h-24.51v15.88h23.13v9.06Z"/>
    <path class="cls-2" d="M775.27,73.55h-17.55v-9.33h46.37v9.33h-17.71v52h-11.11v-52Z"/>
    <path class="cls-2" d="M811.17,65.06c4.25-.78,10.46-1.32,16.94-1.32,8.78,0,14.76,1.49,18.88,4.95,3.37,2.8,5.27,7.05,5.27,12.3,0,7.9-5.36,13.29-11.17,15.33v.26c4.45,1.68,7.05,5.92,8.57,11.89,1.95,7.7,3.62,14.7,4.84,17.09h-11.41c-.95-1.77-2.42-6.84-4.13-14.48-1.76-8.01-4.68-10.62-11.07-10.77h-5.7v25.25h-11.02v-60.49ZM822.2,92.16h6.67c7.63,0,12.33-4.03,12.33-10.15,0-6.71-4.73-9.86-12.01-9.88-3.56,0-5.84.28-6.99.57v19.46Z"/>
    <path class="cls-2" d="M875.72,108.16l-5.27,17.39h-11.48l19.72-61.34h14.13l19.96,61.34h-11.92l-5.58-17.39h-19.55ZM893.43,99.76l-4.87-15.19c-1.18-3.81-2.19-7.96-3.12-11.52h-.2c-.89,3.6-1.83,7.83-2.92,11.48l-4.78,15.23h15.88Z"/>
    <path class="cls-2" d="M963.56,123.73c-2.66,1.33-8.5,2.77-15.93,2.77-19.39,0-31.28-12.18-31.28-30.9,0-20.14,14.05-32.35,32.81-32.35,7.38,0,12.59,1.5,14.84,2.71l-2.42,8.86c-2.86-1.3-6.95-2.41-11.97-2.41-12.56,0-21.57,7.85-21.57,22.64,0,13.56,7.9,22.16,21.42,22.16,4.54,0,9.28-.9,12.25-2.23l1.85,8.75Z"/>
    <path class="cls-2" d="M973.06,64.22h11.02v28.26h.25c1.47-2.35,3.04-4.53,4.5-6.61l16.15-21.65h13.67l-21.17,26.09,22.56,35.25h-12.99l-17.45-28.14-5.52,6.56v21.58h-11.02v-61.34Z"/>
    <path class="cls-2" d="M1025.69,113.41c3.61,2.08,9.1,3.91,14.8,3.91,7.18,0,11.2-3.38,11.2-8.44,0-4.66-3.11-7.41-10.89-10.24-10.13-3.59-16.59-9.02-16.59-17.81,0-10.03,8.39-17.58,21.65-17.58,6.64,0,11.49,1.42,14.67,3.03l-2.67,8.96c-2.21-1.16-6.48-2.91-12.23-2.91-7.15,0-10.17,3.82-10.17,7.44,0,4.73,3.55,6.96,11.75,10.09,10.65,4.07,15.77,9.41,15.77,18.23,0,9.85-7.42,18.4-23.2,18.4-6.48,0-13.2-1.84-16.55-3.9l2.47-9.2Z"/>
    <path class="cls-1" d="M1134.61,123.37c-3.09,1.64-9.01,3.09-16.47,3.09-14.83,0-29.03-9.46-29.03-31.21,0-18.2,11.74-32.03,31.03-32.03,7.83,0,12.38,1.73,14.29,2.73l-1.46,3.64c-3.09-1.55-7.55-2.64-12.74-2.64-16.56,0-26.66,10.74-26.66,28.39,0,16.65,9.56,27.39,25.94,27.39,5.28,0,10.37-1.09,13.83-2.82l1.27,3.46Z"/>
    <path class="cls-1" d="M1193.67,94.25c0,21.66-13.2,32.31-27.39,32.31-15.11,0-26.76-11.92-26.76-31.03,0-20.11,12.1-32.31,27.48-32.31s26.66,12.01,26.66,31.03ZM1143.98,95.34c0,13.83,8.01,27.57,22.57,27.57s22.66-13.2,22.66-28.39c0-12.92-7.1-27.67-22.48-27.67s-22.75,14.2-22.75,28.48Z"/>
    <path class="cls-1" d="M1204.59,125.55v-61.34h4.1l23.93,36.22c4.91,7.64,8.46,13.38,11.47,19.29l.18-.09c-.64-8.28-.73-15.29-.73-24.94v-30.49h4.28v61.34h-4.09l-23.39-35.67c-4.55-7.1-8.74-13.56-11.92-19.84l-.18.09c.45,7.55.55,14.2.55,24.39v31.03h-4.19Z"/>
    <path class="cls-1" d="M1260.64,118.73c3.46,2.37,8.28,4.09,13.47,4.09,9.1,0,14.74-5.19,14.74-12.74,0-6.92-3.55-10.92-12.38-14.38-9.92-3.46-15.83-8.55-15.83-16.93,0-9.01,7.46-15.56,17.84-15.56,5.73,0,10.1,1.55,12.19,2.91l-1.64,3.64c-1.64-1.18-5.55-2.91-10.83-2.91-9.92,0-13.29,6.37-13.29,11.19,0,6.83,3.91,10.28,12.74,13.74,10.1,4.1,15.47,8.65,15.47,17.84s-6.37,16.84-19.47,16.84c-5.28,0-11.47-1.73-14.65-4.1l1.64-3.64Z"/>
    <path class="cls-1" d="M1309.15,64.22v37.04c0,15.56,7.28,21.57,16.38,21.57,10.1,0,17.11-6.55,17.11-21.57v-37.04h4.37v36.58c0,18.84-10.19,25.75-21.75,25.75-10.74,0-20.38-6.28-20.38-25.03v-37.31h4.28Z"/>
    <path class="cls-1" d="M1361.83,64.22h4.28v57.7h27.39v3.64h-31.67v-61.34Z"/>
    <path class="cls-1" d="M1407.06,67.86h-19.93v-3.64h44.32v3.64h-20.02v57.7h-4.37v-57.7Z"/>
    <path class="cls-1" d="M1442.1,64.22v61.34h-4.28v-61.34h4.28Z"/>
    <path class="cls-1" d="M1457.02,125.55v-61.34h4.09l23.93,36.22c4.91,7.64,8.46,13.38,11.47,19.29l.18-.09c-.64-8.28-.73-15.29-.73-24.94v-30.49h4.28v61.34h-4.1l-23.39-35.67c-4.55-7.1-8.74-13.56-11.92-19.84l-.18.09c.46,7.55.55,14.2.55,24.39v31.03h-4.19Z"/>
    <path class="cls-1" d="M1559.03,122.82c-3.09,1.27-9.46,3.37-17.84,3.37s-15.56-2.09-21.75-8.1c-5.01-4.92-8.37-13.1-8.37-23.02,0-17.02,11.1-31.49,31.94-31.49,6.64,0,11.92,1.64,14.29,2.73l-1.37,3.64c-3.19-1.55-7.28-2.64-13.1-2.64-16.93,0-27.3,10.92-27.3,27.57s10.19,27.57,26.39,27.57c6.37,0,10.56-.91,12.83-2.09v-21.66h-14.29v-3.55h18.56v27.67Z"/>
    <path class="cls-2" d="M1629.83,125.55c-2-2-3.82-4-6.73-7.01-6.19,6.01-12.19,8.01-18.66,8.01-10.01,0-17.29-7.55-17.29-17.11,0-8.55,5.28-14.11,12.19-18.11v-.27c-3.46-4.64-5.37-9.1-5.37-13.38,0-7.37,5.01-14.47,13.83-14.47,6.55,0,11.74,4.73,11.74,12.19,0,6.55-3.91,11.56-14.29,16.74v.27c6.19,7.28,13.29,15.29,17.84,20.48,3-4.55,4.91-10.65,6.28-19.75h4.19c-1.64,9.83-4,17.29-8.01,22.3,3.09,3.19,6.1,6.28,9.74,10.1h-5.46ZM1620.64,116c-3.55-4.19-11.47-12.83-19.29-22.02-3.91,2.37-9.83,6.92-9.83,14.92s5.92,14.11,13.92,14.11c6.37,0,11.65-2.91,15.2-7.01ZM1598.07,77.23c0,5.19,2.55,9.01,5.01,12.38,7.28-3.82,12.38-7.64,12.38-13.83,0-4.37-2.46-9.1-8.28-9.1s-9.1,5-9.1,10.56Z"/>
    <path class="cls-1" d="M1704.18,123.37c-3.09,1.64-9.01,3.09-16.47,3.09-14.83,0-29.03-9.46-29.03-31.21,0-18.2,11.74-32.03,31.03-32.03,7.83,0,12.38,1.73,14.29,2.73l-1.46,3.64c-3.09-1.55-7.55-2.64-12.74-2.64-16.56,0-26.66,10.74-26.66,28.39,0,16.65,9.56,27.39,25.94,27.39,5.28,0,10.37-1.09,13.83-2.82l1.27,3.46Z"/>
    <path class="cls-1" d="M1763.23,94.25c0,21.66-13.2,32.31-27.39,32.31-15.11,0-26.75-11.92-26.75-31.03,0-20.11,12.1-32.31,27.48-32.31s26.66,12.01,26.66,31.03ZM1713.55,95.34c0,13.83,8.01,27.57,22.57,27.57s22.66-13.2,22.66-28.39c0-12.92-7.1-27.67-22.48-27.67s-22.75,14.2-22.75,28.48Z"/>
    <path class="cls-1" d="M1780.25,104.08l-7.55,21.48h-4.46l22.21-61.34h4.19l22.11,61.34h-4.46l-7.74-21.48h-24.3ZM1803.18,100.44l-7.46-20.48c-1.46-4.28-2.27-7.37-3.19-10.83h-.18c-.91,3.55-1.91,6.73-3.19,10.65l-7.55,20.66h21.57Z"/>
    <path class="cls-1" d="M1866.88,123.37c-3.09,1.64-9.01,3.09-16.47,3.09-14.83,0-29.03-9.46-29.03-31.21,0-18.2,11.74-32.03,31.03-32.03,7.83,0,12.38,1.73,14.29,2.73l-1.46,3.64c-3.09-1.55-7.55-2.64-12.74-2.64-16.56,0-26.66,10.74-26.66,28.39,0,16.65,9.56,27.39,25.94,27.39,5.28,0,10.37-1.09,13.83-2.82l1.27,3.46Z"/>
    <path class="cls-1" d="M1881.53,64.22v26.94h33.85v-26.94h4.28v61.34h-4.28v-30.67h-33.85v30.67h-4.28v-61.34h4.28Z"/>
    <path class="cls-1" d="M1938.86,64.22v61.34h-4.28v-61.34h4.28Z"/>
    <path class="cls-1" d="M1953.79,125.55v-61.34h4.09l23.93,36.22c4.91,7.64,8.46,13.38,11.47,19.29l.18-.09c-.64-8.28-.73-15.29-.73-24.94v-30.49h4.28v61.34h-4.1l-23.39-35.67c-4.55-7.1-8.74-13.56-11.92-19.84l-.18.09c.46,7.55.55,14.2.55,24.39v31.03h-4.19Z"/>
    <path class="cls-1" d="M2055.8,122.82c-3.09,1.27-9.46,3.37-17.84,3.37s-15.56-2.09-21.75-8.1c-5.01-4.92-8.37-13.1-8.37-23.02,0-17.02,11.1-31.49,31.94-31.49,6.64,0,11.92,1.64,14.29,2.73l-1.37,3.64c-3.19-1.55-7.28-2.64-13.1-2.64-16.93,0-27.3,10.92-27.3,27.57s10.19,27.57,26.39,27.57c6.37,0,10.56-.91,12.83-2.09v-21.66h-14.29v-3.55h18.56v27.67Z"/>
  </g>
  <path class="cls-1" d="M157.04,187.55H40.38v-17.5h11.67v5.83h93.32V53.94c0-23.31-18.96-42.28-42.28-42.28h-49.15c-23.31,0-42.28,18.96-42.28,42.28v98.61h77.67c8.63,0,15.65-7.02,15.65-15.65v-21.64c0-8.63-7.02-15.65-15.65-15.65h-37.29v47.11h-11.67V37.69h48.96c15.06,0,27.32,12.26,27.32,27.32v7.28c0,8.71-4.1,16.48-10.46,21.49,6.37,5.01,10.46,12.78,10.46,21.49v21.64c0,15.06-12.25,27.32-27.32,27.32H0V53.94C0,24.2,24.2,0,53.94,0h49.15c29.74,0,53.94,24.2,53.94,53.94v133.6ZM52.05,87.94h37.29c8.63,0,15.65-7.02,15.65-15.65v-7.28c0-8.63-7.02-15.65-15.65-15.65h-37.29v38.59Z"/>
</svg>