<?xml version="1.0" encoding="UTF-8"?>
<svg id="Flat" xmlns="http://www.w3.org/2000/svg" viewBox="0 0 1696.26 307.1">
  <defs>
    <style>
      .cls-1 {
        fill: #fcac61;
      }

      .cls-2 {
        fill: #fff;
      }
    </style>
  </defs>
  <g>
    <path class="cls-2" d="M316.73,64.67c5.26-1.08,14.74-1.94,23.95-1.94,12.08,0,19.64,1.58,25.76,5.75,5.54,3.44,9.24,9.22,9.24,16.92,0,8.29-5.19,15.86-15,19.43v.35c9.49,2.4,18.25,9.89,18.25,22.33,0,7.99-3.45,14.2-8.6,18.58-6.42,5.55-16.96,8.32-33.42,8.32-9.12,0-15.92-.61-20.18-1.18v-88.58ZM332.93,100.3h8.5c11.44,0,17.81-5.42,17.81-13.07,0-8.52-6.46-12.42-16.87-12.42-4.9,0-7.67.34-9.44.73v24.77ZM332.93,141.68c2.15.4,4.94.47,8.74.47,10.58,0,20.1-3.97,20.1-15.15,0-10.53-9.26-14.85-20.61-14.86h-8.23v29.54Z"/>
    <path class="cls-2" d="M444.2,113.5h-33.99v26.62h38.01v13.43h-54.34V63.43h52.35v13.43h-36.02v23.33h33.99v13.32Z"/>
    <path class="cls-2" d="M487.94,77.14h-25.78v-13.71h68.14v13.71h-26.03v76.41h-16.33v-76.41Z"/>
    <path class="cls-2" d="M566.52,153.55l-22.04-90.12h17.4l8.66,41.07c2.24,10.98,4.36,22.43,5.88,31.35h.3c1.45-9.4,3.93-20.17,6.55-31.55l9.76-40.87h17.18l8.98,41.6c2.2,10.65,4.14,20.73,5.49,30.49h.28c1.59-9.97,3.77-20.23,6.14-31.23l9.45-40.86h16.62l-24.33,90.12h-17.41l-9.39-42.58c-2.29-10.22-3.92-18.85-5.1-28.55h-.27c-1.51,9.63-3.27,18.28-5.97,28.57l-10.55,42.55h-17.64Z"/>
    <path class="cls-2" d="M725,113.5h-33.99v26.62h38.01v13.43h-54.34V63.43h52.35v13.43h-36.02v23.33h33.99v13.32Z"/>
    <path class="cls-2" d="M800.41,113.5h-33.99v26.62h38.01v13.43h-54.34V63.43h52.35v13.43h-36.02v23.33h33.99v13.32Z"/>
    <path class="cls-2" d="M825.51,153.55V63.43h18.64l23.45,38.88c5.95,9.97,11.2,20.41,15.36,30.18l.32-.09c-1.16-11.97-1.47-23.56-1.47-37.34v-31.64h15.09v90.12h-16.9l-23.67-39.83c-5.76-9.9-11.75-20.85-16.17-31.06l-.42.09c.66,11.7.87,23.57.87,38.37v32.43h-15.09Z"/>
    <path class="cls-2" d="M968.77,77.14h-25.78v-13.71h68.14v13.71h-26.03v76.41h-16.33v-76.41Z"/>
    <path class="cls-2" d="M1044.54,63.43v36.1h38.25v-36.1h16.33v90.12h-16.33v-39.84h-38.25v39.84h-16.33V63.43h16.33Z"/>
    <path class="cls-2" d="M1175.08,113.5h-33.99v26.62h38.01v13.43h-54.34V63.43h52.35v13.43h-36.02v23.33h33.99v13.32Z"/>
    <path class="cls-2" d="M1246.49,77.14h-25.78v-13.71h68.14v13.71h-26.03v76.41h-16.33v-76.41Z"/>
    <path class="cls-2" d="M1305.93,64.67c6.25-1.14,15.38-1.94,24.89-1.94,12.9,0,21.69,2.18,27.74,7.27,4.95,4.12,7.75,10.36,7.75,18.07,0,11.61-7.88,19.53-16.41,22.53v.38c6.54,2.47,10.36,8.69,12.59,17.47,2.87,11.32,5.32,21.6,7.11,25.11h-16.76c-1.4-2.61-3.55-10.06-6.07-21.27-2.59-11.77-6.88-15.6-16.27-15.83h-8.37v37.1h-16.2v-88.89ZM1322.13,104.48h9.81c11.21,0,18.11-5.91,18.11-14.91,0-9.86-6.96-14.49-17.65-14.52-5.24,0-8.58.41-10.27.84v28.59Z"/>
    <path class="cls-2" d="M1407.47,127.99l-7.74,25.56h-16.87l28.97-90.12h20.76l29.33,90.12h-17.52l-8.2-25.56h-28.73ZM1433.49,115.65l-7.16-22.32c-1.74-5.59-3.22-11.7-4.58-16.93h-.3c-1.31,5.29-2.69,11.5-4.29,16.87l-7.02,22.38h23.34Z"/>
    <path class="cls-2" d="M1536.79,150.88c-3.91,1.95-12.49,4.08-23.4,4.08-28.49,0-45.96-17.9-45.96-45.41,0-29.59,20.64-47.53,48.21-47.53,10.85,0,18.49,2.2,21.81,3.98l-3.55,13.01c-4.21-1.92-10.21-3.54-17.59-3.54-18.45,0-31.7,11.54-31.7,33.26,0,19.93,11.61,32.55,31.47,32.55,6.67,0,13.63-1.33,18-3.28l2.71,12.86Z"/>
    <path class="cls-2" d="M1557.45,63.43h16.2v41.52h.37c2.16-3.45,4.47-6.66,6.62-9.71l23.73-31.81h20.08l-31.11,38.33,33.16,51.79h-19.09l-25.64-41.35-8.12,9.64v31.71h-16.2V63.43Z"/>
    <path class="cls-2" d="M1641.47,135.71c5.31,3.06,13.37,5.74,21.75,5.74,10.55,0,16.46-4.97,16.46-12.4,0-6.85-4.57-10.89-16-15.04-14.88-5.28-24.38-13.26-24.38-26.17,0-14.74,12.32-25.83,31.82-25.83,9.75,0,16.88,2.08,21.55,4.45l-3.92,13.17c-3.25-1.71-9.52-4.28-17.98-4.28-10.51,0-14.95,5.61-14.95,10.94,0,6.96,5.22,10.23,17.26,14.83,15.64,5.98,23.18,13.82,23.18,26.78,0,14.48-10.9,27.04-34.09,27.04-9.51,0-19.4-2.71-24.32-5.73l3.63-13.51Z"/>
  </g>
  <path class="cls-1" d="M257.14,307.1H66.12v-28.65h19.1v9.55h152.82V88.33c0-38.17-31.05-69.23-69.23-69.23h-80.49c-38.17,0-69.23,31.05-69.23,69.23v161.47h127.18c14.13,0,25.63-11.5,25.63-25.63v-35.43c0-14.13-11.5-25.63-25.63-25.63h-61.06v77.14h-19.1V61.71h80.16c24.67,0,44.73,20.07,44.73,44.73v11.92c0,14.26-6.71,26.99-17.14,35.18,10.43,8.2,17.14,20.92,17.14,35.18v35.43c0,24.67-20.07,44.73-44.73,44.73H0V88.33C0,39.62,39.62,0,88.33,0h80.49c48.7,0,88.33,39.62,88.33,88.33v218.77ZM85.22,144h61.06c14.13,0,25.63-11.5,25.63-25.63v-11.92c0-14.13-11.5-25.63-25.63-25.63h-61.06v63.18Z"/>
  <g>
    <path class="cls-1" d="M352.18,238.48c-2.5,1.27-7.27,2.5-13.35,2.5-11.98,0-23.44-7.66-23.44-25.24,0-14.71,9.48-25.83,25.11-25.83,6.3,0,9.96,1.4,11.48,2.17l-1.14,2.96c-2.52-1.25-6.12-2.15-10.3-2.15-13.35,0-21.51,8.69-21.51,22.92,0,13.46,7.68,22.13,20.92,22.13,4.24,0,8.36-.86,11.19-2.3l1.05,2.83Z"/>
    <path class="cls-1" d="M429.84,214.95c0,17.45-10.69,26.06-22.17,26.06-12.18,0-21.6-9.59-21.6-25.07s9.83-26.06,22.21-26.06,21.56,9.74,21.56,25.07ZM389.7,215.83c0,11.15,6.48,22.26,18.18,22.26s18.31-10.67,18.31-22.92c0-10.43-5.71-22.37-18.17-22.37s-18.33,11.46-18.33,23.03Z"/>
    <path class="cls-1" d="M468.57,240.21v-49.52h3.32l19.3,29.26c4.02,6.19,6.89,10.78,9.29,15.59l.15-.11c-.51-6.65-.57-12.31-.57-20.09v-24.65h3.4v49.52h-3.27l-18.9-28.82c-3.69-5.68-7.07-10.89-9.59-16.02l-.2.11c.4,6.1.46,11.42.46,19.67v25.05h-3.4Z"/>
    <path class="cls-1" d="M543.86,234.74c2.79,1.91,6.67,3.27,10.82,3.27,7.4,0,11.94-4.21,11.94-10.3,0-5.55-2.88-8.82-10.03-11.57-7.97-2.83-12.75-6.92-12.75-13.67,0-7.25,5.99-12.54,14.4-12.54,4.65,0,8.17,1.19,9.86,2.33l-1.36,2.94c-1.34-.94-4.5-2.35-8.74-2.35-7.99,0-10.71,5.12-10.71,9.02,0,5.49,3.18,8.3,10.27,11.08,8.17,3.31,12.51,7.02,12.51,14.44s-5.14,13.61-15.71,13.61c-4.28,0-9.26-1.4-11.83-3.32l1.32-2.92Z"/>
    <path class="cls-1" d="M612.98,190.69v29.88c0,12.58,5.9,17.47,13.19,17.47,8.16,0,13.85-5.29,13.85-17.47v-29.88h3.49v29.57c0,15.19-8.17,20.76-17.54,20.76-8.63,0-16.48-5.05-16.48-20.22v-30.1h3.49Z"/>
    <path class="cls-1" d="M685.45,190.69h3.49v46.58h22.08v2.94h-25.57v-49.52Z"/>
    <path class="cls-1" d="M751.92,193.63h-16.15v-2.94h35.78v2.94h-16.15v46.58h-3.49v-46.58Z"/>
    <path class="cls-1" d="M810.17,190.69v49.52h-3.49v-49.52h3.49Z"/>
    <path class="cls-1" d="M852.15,240.21v-49.52h3.32l19.3,29.26c4.02,6.19,6.89,10.78,9.29,15.59l.15-.11c-.51-6.65-.57-12.31-.57-20.09v-24.65h3.4v49.52h-3.27l-18.9-28.82c-3.69-5.68-7.07-10.89-9.59-16.02l-.2.11c.4,6.1.46,11.42.46,19.67v25.05h-3.4Z"/>
    <path class="cls-1" d="M964.52,238.02c-2.5,1.01-7.66,2.68-14.42,2.68s-12.55-1.67-17.52-6.48c-4.1-3.99-6.81-10.63-6.81-18.61,0-13.72,9.02-25.42,25.84-25.42,5.31,0,9.61,1.29,11.54,2.2l-1.14,2.9c-2.57-1.21-5.86-2.13-10.58-2.13-13.67,0-22.02,8.85-22.02,22.26s8.19,22.3,21.27,22.3c5.2,0,8.52-.77,10.36-1.73v-17.43h-11.48v-2.88h14.97v22.33Z"/>
    <path class="cls-2" d="M1081.62,240.21c-1.63-1.63-3.07-3.21-5.46-5.62-4.98,4.79-9.81,6.43-15.01,6.43-8.14,0-13.96-6.1-13.96-13.81,0-6.87,4.26-11.41,9.79-14.6l.02-.22c-2.79-3.73-4.32-7.33-4.32-10.82,0-5.92,4.02-11.68,11.17-11.68,5.25,0,9.44,3.82,9.44,9.85,0,5.31-3.1,9.31-11.54,13.5v.22c5.05,5.91,10.75,12.36,14.42,16.57,2.44-3.67,3.97-8.6,5.11-15.92h3.32c-1.32,7.93-3.21,13.94-6.46,17.95,2.55,2.61,4.92,5.07,7.88,8.17h-4.41ZM1074.21,232.48c-2.87-3.33-9.29-10.32-15.61-17.73-3.12,1.86-7.93,5.58-7.93,12.01s4.78,11.39,11.24,11.39c5.16,0,9.4-2.37,12.31-5.67ZM1056.01,201.21c0,4.19,2,7.24,4,10.01,5.92-3.12,9.97-6.17,9.97-11.19,0-3.51-1.93-7.35-6.67-7.35s-7.31,4-7.31,8.52Z"/>
    <path class="cls-1" d="M1201.63,238.48c-2.5,1.27-7.27,2.5-13.35,2.5-11.98,0-23.44-7.66-23.44-25.24,0-14.71,9.48-25.83,25.11-25.83,6.3,0,9.96,1.4,11.48,2.17l-1.14,2.96c-2.52-1.25-6.12-2.15-10.3-2.15-13.35,0-21.51,8.69-21.51,22.92,0,13.46,7.68,22.13,20.92,22.13,4.24,0,8.36-.86,11.19-2.3l1.05,2.83Z"/>
    <path class="cls-1" d="M1279.29,214.95c0,17.45-10.69,26.06-22.17,26.06-12.18,0-21.6-9.59-21.6-25.07s9.83-26.06,22.21-26.06,21.56,9.74,21.56,25.07ZM1239.15,215.83c0,11.15,6.48,22.26,18.18,22.26s18.31-10.67,18.31-22.92c0-10.43-5.71-22.37-18.17-22.37s-18.33,11.46-18.33,23.03Z"/>
    <path class="cls-1" d="M1322.98,222.89l-6.12,17.32h-3.58l17.91-49.52h3.4l17.83,49.52h-3.62l-6.23-17.32h-19.6ZM1341.51,219.95l-6.02-16.55c-1.21-3.44-1.87-5.92-2.59-8.72h-.18c-.7,2.88-1.49,5.46-2.57,8.58l-6.06,16.7h17.43Z"/>
    <path class="cls-1" d="M1422.92,238.48c-2.5,1.27-7.27,2.5-13.35,2.5-11.98,0-23.44-7.66-23.44-25.24,0-14.71,9.48-25.83,25.11-25.83,6.3,0,9.96,1.4,11.48,2.17l-1.14,2.96c-2.52-1.25-6.12-2.15-10.3-2.15-13.35,0-21.51,8.69-21.51,22.92,0,13.46,7.68,22.13,20.92,22.13,4.24,0,8.36-.86,11.19-2.3l1.05,2.83Z"/>
    <path class="cls-1" d="M1464.7,190.69v21.78h27.31v-21.78h3.49v49.52h-3.49v-24.78h-27.31v24.78h-3.49v-49.52h3.49Z"/>
    <path class="cls-1" d="M1540.96,190.69v49.52h-3.49v-49.52h3.49Z"/>
    <path class="cls-1" d="M1582.95,240.21v-49.52h3.32l19.3,29.26c4.02,6.19,6.89,10.78,9.29,15.59l.15-.11c-.51-6.65-.57-12.31-.57-20.09v-24.65h3.4v49.52h-3.27l-18.9-28.82c-3.69-5.68-7.07-10.89-9.59-16.02l-.2.11c.4,6.1.46,11.42.46,19.67v25.05h-3.4Z"/>
    <path class="cls-1" d="M1695.32,238.02c-2.5,1.01-7.66,2.68-14.42,2.68s-12.55-1.67-17.52-6.48c-4.1-3.99-6.81-10.63-6.81-18.61,0-13.72,9.02-25.42,25.84-25.42,5.31,0,9.61,1.29,11.54,2.2l-1.14,2.9c-2.57-1.21-5.86-2.13-10.58-2.13-13.67,0-22.02,8.85-22.02,22.26s8.19,22.3,21.27,22.3c5.2,0,8.52-.77,10.36-1.73v-17.43h-11.48v-2.88h14.97v22.33Z"/>
  </g>
</svg>